<svg xmlns="http://www.w3.org/2000/svg" xmlns:xlink="http://www.w3.org/1999/xlink" version="1.1" x="0px" y="0px" viewBox="0 0 53 66.25" style="enable-background:new 0 0 53 53;" xml:space="preserve"><g fill="#ffbb66"><path d="M48.1074181,34.0817642l-13.3125,7.7368164c-0.9160156,0.5322266-2.4638672,0.5322266-3.3818359-0.0009766   l-14.2158203-8.2050781c-0.2382813-0.1362305-0.5458984-0.0556641-0.6826172,0.1831055   c-0.1386719,0.2392578-0.0566406,0.5449219,0.1826172,0.6831055l14.2148438,8.2041016   c1.2284813,0.7148247,3.1562157,0.7148628,4.3847656,0l13.3144531-7.737793   c0.6728516-0.3945313,1.0439453-0.9443359,1.0439453-1.5473633l0.0087891-3.8513184   c0.0001221-0.0064087,0.0029297-0.0123291,0.0029297-0.0187988c0.0019531-0.6044922-0.3828125-1.1743164-1.0556641-1.5644531   l-10.4234619-6.0178833c-0.3825684-1.2438965-1.2554321-2.4477539-2.3011475-3.0514526l-14.9179688-8.734375   c-0.7753906-0.4418945-1.5283203-0.4995117-2.1201172-0.1582031c-1.3145943,0.7688951-2.6791267,1.5499477-2.8208008,1.6516113   c-0.5582886,0.3474121-0.8716431,1.0012817-0.8735352,1.8591309l-0.00177,0.6253052l-10.7658081,6.24823   c-0.6787109,0.3994141-1.0498047,0.9550781-1.046875,1.5639648c0,0.0040283,0.0018311,0.0076904,0.0018921,0.0117188   l-0.008728,3.8452148c0,0.6079102,0.3730469,1.1635742,1.0556641,1.5683594l4.6953125,2.7104492   c0.2402344,0.1381836,0.5458984,0.0566406,0.6826172-0.1831055c0.1386719-0.2392578,0.0566406-0.5449219-0.1826172-0.6831055   l-4.6904297-2.7075195c-0.2089844-0.1240234-0.5605469-0.3808594-0.5605469-0.7041016l0.0048828-2.3447266   c0.053566,0.0321407,26.5305328,15.3265457,26.5839844,15.3574219c1.2262001,0.7035103,3.1946487,0.6857529,4.3798828-0.0014648   c18.2515411-10.6085911,11.956562-6.9496746,13.3183594-7.7412109c0.0136719-0.0083008,0.0273438-0.0161133,0.0400391-0.0244141   l-0.0048828,2.34375C48.6552696,33.6276627,48.4550743,33.8776627,48.1074181,34.0817642z M19.3496056,10.8664322   c0.265625-0.1542969,0.6679688-0.0986328,1.1181641,0.1591797l14.9160156,8.7329102   c1.0986328,0.6333008,2.0205078,2.2314453,2.0136719,3.4887695c0,0.0004883,0,0.0009766,0,0.0014648l-0.0234375,8.003418   l-1.7841797,1.0375977l0.0205078-7.3901367c0.1136818-1.9254189-0.8358917-3.4208679-2.5087891-4.3857422   c-17.0618629-9.9913845-14.9275417-8.7488346-15.1289063-8.8466797L19.3496056,10.8664322z M34.5537071,24.2350845   l0.0322266,8.059082l-1.2695313-0.7333984c0.0029755-1.5445099,0.0278511-7.7888622,0.0148926-8.0292969   c-0.0091438-0.174654-0.1122894-0.3333111-0.2375488-0.4067383l-14.9101563-8.7294922   c-0.3018322-0.1801758-0.7526379,0.0439997-0.7548828,0.4301758c-0.00033,0.1006622-0.0259228,7.9234104-0.024292,7.4251099   l-1.272583-0.7351685l0.0224609-8.0004883c0.0017357-0.8942976,0.4326286-1.3336706,1.2557373-1.0010986   c0.2553425,0.1052961-0.7900181-0.4902344,15.1827393,8.8624268c0.0009766,0.0004883,0.0019531,0.0009766,0.0029297,0.0014648   C33.6643982,21.9937363,34.5568542,22.9864712,34.5537071,24.2350845z M19.6796837,16.4323502l-0.0078125,5.0849609   L18.40765,22.2468033c0.0003147-0.102684,0.0213623-6.9661055,0.0200806-6.5481567   C18.5279408,15.7573738,19.7798939,16.4910774,19.6796837,16.4323502z M4.8915977,21.2487564l10.2576294-5.953064   l-0.0183716,6.5062866c-0.0009766,0.1791992,0.0947266,0.3447266,0.25,0.4345703   c0.5673809,0.3281288,1.7021523,0.9843693,2.2695313,1.3125c0.1625156,0.0934467,0.3577309,0.0857143,0.5039063,0.0014648   c0.1000996-0.0576916,2.3667336-1.3686714,2.2666016-1.3110352c0.1542969-0.0893555,0.25-0.2539063,0.25-0.4321289   l0.0082397-4.7902222l11.6587524,6.8278198l-0.0224609,8.0024414c-0.0009766,0.1791992,0.0947266,0.3447266,0.25,0.4345703   l2.2744141,1.3134766c0.1506767,0.0867844,0.34058,0.0917397,0.5009766-0.0004883   c0.00354-0.0020752,0.0049438-0.0063477,0.0084229-0.0084839l2.7747803-1.6140747   c0.1542969-0.0893555,0.2480469-0.2529297,0.2490234-0.4306641l0.0244141-8.2885742   c0.000061-0.0109863-0.0025024-0.0224609-0.0025635-0.0334473l9.7154541,5.6091309   c0.3515625,0.2038574,0.5529785,0.4552612,0.5554199,0.6903687c-0.000061,0.0029907-0.001709,0.0053711-0.001709,0.0083618   v0.003418c-0.0023346,0.2749367-0.3160858,0.5466347-0.5537109,0.6831055   c-1.3614769,0.7915478,4.9288406-2.8655701-13.3066406,7.7363281c-0.9160156,0.5322266-2.4628906,0.5322266-3.3808594-0.0009766   C31.1723995,37.8048058,6.264462,23.4203072,4.9003868,22.6325455c-0.208313-0.1196289-0.3572388-0.2560425-0.4512329-0.3953247   c-0.0655518-0.0986938-0.1073608-0.1991577-0.1073608-0.2990112c0-0.0006714-0.0003662-0.0012207-0.0003662-0.0018921   C4.3447838,21.7036514,4.544796,21.4530411,4.8915977,21.2487564z"/><path d="M11.9238243,30.5690689c-0.2402344-0.1376953-0.5458984-0.0561523-0.6826172,0.1831055   c-0.1386719,0.2392578-0.0566406,0.5449219,0.1826172,0.6831055l2.6425781,1.5249023   c0.2413855,0.1385727,0.5466251,0.0541573,0.6826172-0.1831055c0.1386719-0.2392578,0.0566406-0.5449219-0.1826172-0.6831055   L11.9238243,30.5690689z"/></g></svg>