<svg xmlns="http://www.w3.org/2000/svg" data-name="Layer 1" viewBox="0 0 100 125" x="0px" y="0px"><path fill="#ffbb66" d="M24.008,14.3l0,22.209,0,.006,0,.005v6.128c0,.017,0,.033,0,.049V42.7c-.276,5.739,2.687,10.55,7.222,11.708a18.527,18.527,0,0,0,3.94.432,11.806,11.806,0,0,1,4.531.737c2.924,1.349,4,5.052,3.756,7.921-.251,2.989-1.589,5.872-2.883,8.659l-.436.943C38.7,76.235,37.2,79.9,37.58,83.756A12.4,12.4,0,0,0,49.519,94.5c.159,0,.32,0,.481-.012s.321.012.481.012A12.4,12.4,0,0,0,62.42,83.756C62.8,79.9,61.3,76.235,59.861,73.1l-.436-.943c-1.294-2.787-2.632-5.67-2.883-8.659-.241-2.869.832-6.572,3.756-7.921a11.806,11.806,0,0,1,4.531-.737,18.527,18.527,0,0,0,3.94-.432c4.549-1.162,7.519-6,7.223-11.711V14.3a.824.824,0,0,0,.018-.089c0-.2-.009-.375-.018-.553V13.4a.957.957,0,0,0-.039-.193,3.821,3.821,0,0,0-1.7-2.973,7.592,7.592,0,0,0-4.14-1.063L65.5,8.949a8.075,8.075,0,0,0-3.59.4C58.985,6.62,57.142,5.5,50,5.5S41.015,6.62,38.092,9.353a8.078,8.078,0,0,0-3.59-.4l-4.617.223a7.587,7.587,0,0,0-4.139,1.063,3.822,3.822,0,0,0-1.7,2.973.957.957,0,0,0-.039.193v.256c-.009.179-.018.359-.018.554A.9.9,0,0,0,24.008,14.3ZM50,37.516H73.993V41.7H26.008V37.516ZM68.274,52.475a16.839,16.839,0,0,1-3.518.37,13.476,13.476,0,0,0-5.3.92c-3.819,1.761-5.218,6.244-4.911,9.905.282,3.342,1.7,6.388,3.062,9.333l.433.935c1.329,2.894,2.719,6.262,2.386,9.621a10.28,10.28,0,0,1-10.379,8.929c-.017,0-.032.008-.049.009s-.034-.009-.053-.009A10.294,10.294,0,0,1,39.57,83.559c-.333-3.359,1.057-6.727,2.386-9.621L42.389,73c1.367-2.945,2.78-5.991,3.062-9.333.307-3.661-1.092-8.144-4.911-9.905a13.476,13.476,0,0,0-5.3-.92,16.839,16.839,0,0,1-3.518-.37c-3.87-.99-5.618-5.039-5.724-8.774H74C73.905,47.406,72.157,51.482,68.274,52.475ZM26.909,11.862a5.729,5.729,0,0,1,3.072-.692l.672-.032v6.04a1,1,0,1,0,2,0V11.041l1.946-.094a6.466,6.466,0,0,1,2.655.246V30.2a1,1,0,1,0,2,0V11.005c1.688-1.6,2.858-2.6,5.309-3.1V19.457a1,1,0,1,0,2,0V7.624C47.531,7.541,48.658,7.5,50,7.5s2.469.041,3.437.124V23.559a1,1,0,0,0,2,0V7.905c2.451.5,3.621,1.5,5.309,3.1v9.688a1,1,0,1,0,2,0v-9.5a6.5,6.5,0,0,1,2.655-.247l1.946.094V25.512a1,1,0,0,0,2,0V11.138l.672.032a5.729,5.729,0,0,1,3.072.692,1.988,1.988,0,0,1,.9,1.794v21.86H26.008V13.657A1.988,1.988,0,0,1,26.909,11.862Z"/><path fill="#ffbb66" d="M54.437,31.2a1,1,0,0,0,1-1V28.246a1,1,0,1,0-2,0V30.2A1,1,0,0,0,54.437,31.2Z"/></svg>