<svg xmlns="http://www.w3.org/2000/svg" xmlns:xlink="http://www.w3.org/1999/xlink" version="1.1" x="0px" y="0px" viewBox="0 0 96 120" enable-background="new 0 0 96 96" xml:space="preserve"><path fill="#ffbb66" d="M74.87,8.615H23.768c-6.733,0-12.283,5.036-13.029,11.63H9.5c-0.827,0-1.5,0.673-1.5,1.5V38.31  c0,0.59,0.347,1.127,0.882,1.367l38.936,17.574v2.817h-1.936c-0.827,0-1.5,0.673-1.5,1.5v24.316c0,0.827,0.673,1.5,1.5,1.5h6.872  c0.827,0,1.5-0.673,1.5-1.5V61.568c0-0.827-0.673-1.5-1.5-1.5h-1.938v-3.787c0-0.59-0.347-1.127-0.882-1.366L11,37.34V24.762  c1.359,5.834,6.561,10.113,12.769,10.113H74.87c7.24,0,13.13-5.89,13.13-13.13S82.11,8.615,74.87,8.615z M51.256,63.068v21.315  h-3.872V63.068H51.256z M74.87,31.875h-51.1c-5.586,0-10.131-4.544-10.131-10.13s4.544-10.13,10.129-10.13H74.87  c5.586,0,10.13,4.544,10.13,10.13S80.456,31.875,74.87,31.875z"/></svg>