<svg xmlns="http://www.w3.org/2000/svg" xmlns:xlink="http://www.w3.org/1999/xlink" version="1.1" x="0px" y="0px" viewBox="0 0 512 640" style="enable-background:new 0 0 512 512;" xml:space="preserve"><g fill="#ffbb66"><g><path  d="M379.45,355.29c-6.01,0-11.69-2.36-16.18-6.85L163.56,148.73c-6.02-6.02-8.21-14.2-6.01-22.43s8.19-14.21,16.42-16.42    l272.8-73.1c8.23-2.2,16.4-0.01,22.43,6.01s8.21,14.2,6.01,22.43l-73.1,272.8c-2.2,8.23-8.19,14.21-16.42,16.42    C383.6,355.01,381.5,355.29,379.45,355.29z M453,45.96c-1.19,0-2.4,0.16-3.64,0.49l-272.8,73.1c-4.75,1.27-8.07,4.59-9.35,9.35    c-1.27,4.75-0.06,9.29,3.42,12.77l199.71,199.71c3.48,3.48,8.01,4.7,12.77,3.42c4.75-1.27,8.07-4.59,9.35-9.35l73.1-272.8    l4.83,1.29l-4.83-1.29c1.27-4.75,0.06-9.29-3.42-12.77C459.55,47.29,456.39,45.96,453,45.96z"/></g><g><g><path d="M79.21,476.07c-11.09,0-22.17-4.22-30.62-12.66c-16.88-16.88-16.88-44.35,0-61.23l124.29-124.29     c1.95-1.95,5.12-1.95,7.07,0l54.16,54.16c1.95,1.95,1.95,5.12,0,7.07L109.83,463.4C101.39,471.85,90.3,476.07,79.21,476.07z      M176.42,288.49L55.67,409.24c-6.26,6.26-9.71,14.62-9.71,23.55s3.45,17.29,9.71,23.55s14.62,9.71,23.54,9.71     s17.29-3.45,23.54-9.7l120.76-120.76L176.42,288.49z"/></g><g><path d="M221.54,331.53c-1.33,0-2.6-0.53-3.54-1.46L181.93,294c-0.94-0.94-1.46-2.21-1.46-3.54s0.53-2.6,1.46-3.54l63.45-63.45     c0.94-0.94,2.21-1.46,3.54-1.46s2.6,0.53,3.54,1.46l36.07,36.07c1.95,1.95,1.95,5.12,0,7.07l-63.45,63.45     C224.14,331.01,222.87,331.53,221.54,331.53z M192.54,290.46l29,29l56.38-56.38l-29-29L192.54,290.46z"/></g><g><path d="M83.37,433.63c-1.28,0-2.56-0.49-3.54-1.46c-1.95-1.95-1.95-5.12,0-7.07l88.89-88.89c1.95-1.95,5.12-1.95,7.07,0     c1.95,1.95,1.95,5.12,0,7.07l-88.89,88.89C85.93,433.14,84.65,433.63,83.37,433.63z"/></g><g><path d="M396.18,205.58c-0.43,0-0.86-0.06-1.3-0.17c-2.67-0.71-4.25-3.46-3.54-6.12l16.98-63.39c0.71-2.67,3.46-4.25,6.12-3.54     c2.67,0.71,4.25,3.46,3.54,6.12l-16.98,63.39C400.41,204.11,398.39,205.58,396.18,205.58z"/></g></g></g></svg>