<svg xmlns:inkscape="http://www.inkscape.org/namespaces/inkscape" xmlns:sodipodi="http://sodipodi.sourceforge.net/DTD/sodipodi-0.dtd" xmlns="http://www.w3.org/2000/svg" xmlns:svg="http://www.w3.org/2000/svg" viewBox="0 0 13.758331 17.19791625" version="1.1" x="0px" y="0px"><g transform="translate(-213.82502)"><path style="color:#000000;paint-order:stroke fill markers;" d="m 213.95236,1.15296 c -0.0711,0.003 -0.12783,0.0625 -0.1273,0.1346 l 0.001,1.37793 v 0.0662 0.15183 1.59913 0.002 1.59913 1.59548 1.59706 1.59547 0.004 1.72958 h 1.76505 v -0.002 h 2.86488 2.9974 2.9974 2.14957 v -5.2e-4 h 0.84887 a 0.13352605,0.1336321 0 0 0 0.132,-0.13148 v -1.57409 a 0.13352605,0.1336321 0 0 0 0.002,-0.0229 V 9.27681 a 0.13352605,0.1336321 0 0 0 -0.002,-0.0235 V 7.70009 a 0.13352605,0.1336321 0 0 0 0.002,-0.0209 V 6.08161 a 0.13352605,0.1336321 0 0 0 -0.002,-0.0261 V 4.48246 a 0.13352605,0.1336321 0 0 0 -0.132,-0.132 h -1.36539 V 2.88489 A 0.13352605,0.1336321 0 0 0 225.94923,2.7508 h -2.9974 -1.36592 V 1.28784 a 0.13352605,0.1336321 0 0 0 -0.132,-0.13461 h -2.9974 -2.9974 -1.50001 c -0.002,-1e-5 -0.004,-1.1e-4 -0.007,0 z m 1.63827,0.26661 h 2.73184 v 1.33096 h -2.56541 c -0.0548,-0.0202 -0.11029,-0.0393 -0.16643,-0.0568 z m 2.99792,0 h 2.73132 v 1.33096 h -2.73132 z m -4.49532,0.002 h 1.23183 v 1.19897 c -0.41473,-0.0998 -0.84493,-0.13964 -1.23183,-0.15131 z m -0.001,1.33566 c 0.57517,0.018 1.24233,0.083 1.76871,0.32348 0.5669,0.25897 0.96261,0.66697 0.96261,1.40192 0,0.3205 0.0771,0.57817 0.22278,0.77322 0.14568,0.19506 0.3538,0.32149 0.59374,0.40226 0.47989,0.1618 1.09731,0.15753 1.75305,0.15757 0.65575,4e-5 1.34893,10e-4 1.95966,0.14609 0.61074,0.14472 1.13347,0.42445 1.48696,0.98974 0.76108,1.21707 1.5029,1.72586 2.07862,2.09844 0.28786,0.18628 0.53037,0.33883 0.71791,0.52644 0.18755,0.18761 0.32594,0.40719 0.41166,0.75496 0.1778,0.72148 0.23609,1.44086 0.26243,2.00557 h -1.85948 -2.9974 -2.99741 -3.13148 v 0.002 h -1.23236 V 10.87595 10.87195 9.27648 7.67942 6.08394 4.48481 4.48281 2.88368 Z m 1.83549,0.0616 c 0.005,0.002 0.0102,0.004 0.0151,0.006 0.01,0.004 0.0191,0.009 0.0287,0.013 0.008,0.004 0.0171,0.007 0.0256,0.0115 0.006,0.003 0.0115,0.006 0.0172,0.008 0.003,10e-4 0.005,0.003 0.008,0.004 0.0114,0.005 0.0226,0.011 0.0339,0.0167 0.004,0.002 0.008,0.004 0.012,0.006 -0.0318,-0.0161 -0.0639,-0.0321 -0.0965,-0.0469 -0.0145,-0.007 -0.0292,-0.0129 -0.0438,-0.0193 z m 0.37043,0.19983 h 0.52435 V 3.53674 C 216.68636,3.3277 216.50581,3.15632 216.29815,3.01866 Z m 0.79253,0 h 1.36592 1.36383 v 1.33148 h -1.35705 c -0.002,-1.4e-4 -0.005,3e-5 -0.007,0 h -1.36592 z m 2.99792,0 h 1.3654 1.36383 v 1.33148 h -1.36383 -1.3654 z m 2.9974,0 h 2.72923 v 1.33148 h -1.36331 -1.36592 z m -6.08089,0.90208 c 0.004,0.0138 0.008,0.0278 0.0125,0.0417 -0.004,-0.0139 -0.008,-0.0281 -0.0125,-0.0417 z m 0.0871,0.64749 c 3.2e-4,0.005 6.9e-4,0.0105 0.001,0.0156 7.6e-4,0.0108 0.002,0.0217 0.003,0.0323 h 1.22662 v 0.90001 c -0.22511,-0.0204 -0.42862,-0.0536 -0.59792,-0.11062 -0.20503,-0.0691 -0.35931,-0.16788 -0.46539,-0.3099 -0.0881,-0.11799 -0.14595,-0.27133 -0.16331,-0.47949 -0.001,-0.0159 -0.003,-0.0316 -0.004,-0.048 z m 1.49636,0.048 h 1.36591 1.3654 v 1.06436 c -0.62769,-0.1336 -1.30235,-0.13301 -1.92679,-0.13305 -0.28209,-10e-6 -0.55323,-10e-4 -0.80452,-0.013 z m 2.9974,0 h 1.36592 1.36591 V 5.9472 h -2.21061 C 221.94095,5.8642 221.76603,5.79871 221.586,5.74685 Z m 2.99792,0 h 1.3654 1.36591 V 5.9472 h -1.36591 -1.3654 z m -6.16906,0.90783 c 0.0128,9.6e-4 0.0257,0.002 0.0386,0.003 0.0222,0.002 0.0442,0.003 0.0668,0.004 -0.0356,-0.002 -0.0707,-0.004 -0.10539,-0.007 z m 2.99949,0.1774 c 0.0262,0.006 0.0522,0.013 0.0783,0.0198 -0.0261,-0.007 -0.0519,-0.0136 -0.0783,-0.0198 z m 1.11548,0.51183 h 0.288 v 0.26869 c -0.0898,-0.0996 -0.18628,-0.18895 -0.288,-0.26869 z m 0.55617,0 h 1.36592 1.36331 v 1.33148 h -2.2278 C 223.42331,7.34346 223.2561,7.11168 223.086,6.8425 Z m 2.99793,0 h 1.2313 v 1.33148 h -1.2313 z m -3.0908,0.48886 c 0.0245,0.0348 0.0484,0.0706 0.0715,0.10749 -0.0231,-0.0369 -0.047,-0.0727 -0.0715,-0.10749 z m 0.59635,0.84522 c 0.0126,0.0155 0.025,0.0304 0.0376,0.0454 -0.0125,-0.0149 -0.0251,-0.0301 -0.0376,-0.0454 z m 0.12522,0.14818 c 0.0159,0.0182 0.0317,0.0361 0.0475,0.0537 -0.0157,-0.0177 -0.0317,-0.0355 -0.0475,-0.0537 z m 0.10539,0.1174 h 0.49774 v 0.4753 c -0.16085,-0.13445 -0.3271,-0.29016 -0.49774,-0.4753 z m 0.76383,0 h 1.3654 1.36591 v 1.32886 h -1.77913 c -0.14619,-0.10809 -0.30431,-0.20805 -0.47218,-0.31669 -0.15208,-0.0984 -0.3124,-0.2045 -0.48,-0.32818 z m 1.17287,1.50887 c 0.0208,0.019 0.041,0.0381 0.061,0.0579 v 5.3e-4 c -0.0201,-0.0199 -0.0402,-0.0394 -0.061,-0.0585 z m 0.32714,0.0892 h 1.2313 v 1.32575 h -0.9073 c -0.0293,-0.1555 -0.0627,-0.31223 -0.10122,-0.46852 -0.0531,-0.21555 -0.12907,-0.39611 -0.22278,-0.55148 v -5.3e-4 z m -0.0741,0.19357 c 0.009,0.0122 0.0176,0.0245 0.0261,0.037 -0.008,-0.0125 -0.0173,-0.0248 -0.0261,-0.037 z m 0.44504,1.40348 h 0.86035 v 1.32835 h -0.72678 c -0.0181,-0.38297 -0.0559,-0.84281 -0.13357,-1.32835 z" fill="#ffbb66" fill-rule="evenodd" stroke-width="1.13404" stroke-linecap="round" stroke-linejoin="round"/></g></svg>